<svg clip-rule="evenodd" fill-rule="evenodd" height="1.707in" image-rendering="optimizeQuality" shape-rendering="geometricPrecision" text-rendering="geometricPrecision" viewBox="0 0 1707 1707" width="1.707in" xmlns="http://www.w3.org/2000/svg"><g id="Layer_x0020_1"><path d="m965 1526c-16 0-30-14-30-30v-351c0-16 14-29 30-29 17 0 30 13 30 29v351c0 16-13 30-30 30z" fill="#333"/><path d="m1106 1351c-17 0-30-14-30-30v-176c0-16 13-29 30-29 16 0 30 13 30 29v176c0 16-14 30-30 30z" fill="#333"/><path d="m676 1526c-16 0-29-14-29-30v-351c0-16 13-29 29-29 17 0 30 13 30 29v351c0 16-13 30-30 30z" fill="#333"/><path d="m817 1351c-16 0-30-14-30-30v-176c0-16 14-29 30-29 17 0 30 13 30 29v176c0 16-13 30-30 30z" fill="#333"/><path d="m1462 1175h-1217c-17 0-30-13-30-30 0-352 286-638 638-638 351 0 636 284 639 634v4c0 17-13 30-30 30z" fill="#ffa721"/><path d="m375 723c13-15 27-29 41-42l184 169c12 12 12 31 0 42-6 6-13 9-21 9s-15-3-21-9zm908-49c15 13 29 27 42 42l-176 176c-6 6-14 9-21 9-8 0-16-3-21-9-12-11-12-30 0-42z" fill="#333"/><path d="m435 1175v-30c0-230 188-417 418-417 229 0 416 185 418 413v4 30c-278 0-557 0-836 0z" fill="#d3ffff"/><path d="m906 1083c-5 0-10-1-14-4-15-8-20-26-11-41l85-148c9-14 27-19 41-11s19 27 11 41l-86 148c-5 10-15 15-26 15z" fill="#333"/><path d="m853 469c-121 0-219-98-219-220 0-121 98-219 219-219s220 98 220 219c0 122-99 220-220 220z" fill="#ff9c01"/><path d="m910 349h-113c-17 0-30-13-30-30 0-16 13-30 30-30h113c17 0 30 14 30 30 0 17-13 30-30 30z" fill="#333"/><path d="m803 217h-30c-16 0-30-13-30-30 0-16 14-29 30-29h30c16 0 29 13 29 29 0 17-13 30-29 30z" fill="#333"/><path d="m933 217h-29c-17 0-30-13-30-30 0-16 13-29 30-29h29c17 0 30 13 30 29 0 17-13 30-30 30z" fill="#333"/><path d="m1487 732c-121 0-220-99-220-220s99-220 220-220 220 99 220 220-99 220-220 220z" fill="#1c9b4f"/><path d="m220 732c-121 0-220-99-220-220s99-220 220-220 219 99 219 220-98 220-219 220z" fill="#ff3e1a"/><g fill="#333"><path d="m169 480h-29c-17 0-30-14-30-30s13-30 30-30h29c17 0 30 14 30 30s-13 30-30 30z"/><path d="m300 480h-30c-16 0-29-14-29-30s13-30 29-30h30c16 0 30 14 30 30s-14 30-30 30z"/><path d="m1436 480h-29c-17 0-30-14-30-30 0-17 13-30 30-30h29c17 0 30 13 30 30 0 16-13 30-30 30z"/><path d="m1567 480h-29c-17 0-30-14-30-30 0-17 13-30 30-30h29c16 0 30 13 30 30 0 16-14 30-30 30z"/><path d="m1487 611c-25 0-48-10-65-27-12-12-12-31 0-43 12-11 30-11 42 0 12 13 34 13 46 0 11-11 30-11 42 0 12 12 12 31 0 43-17 17-41 27-65 27z"/><path d="m264 611c-8 0-16-3-21-9-13-13-33-13-46 0-12 11-31 11-42 0-12-12-12-31 0-42 36-36 94-36 130 0 11 11 11 30 0 42-6 6-14 9-21 9z"/></g><path d="m676 1677c-58 0-105-47-105-105 0-59 47-106 105-106 59 0 106 47 106 106 0 58-47 105-106 105zm289 0c-58 0-105-47-105-105 0-59 47-106 105-106s106 47 106 106c0 58-48 105-106 105z" fill="#ff3e1a"/><path d="m717 1175v-30c0-75 61-136 136-136s137 62 137 136v30c-91 0-182 0-273 0z" fill="#58535a"/><path d="m215 1145h1276.98v29.839h-1276.98z" fill="#ffa721"/></g></svg>